<?xml version="1.0" standalone="no"?>
<!DOCTYPE svg PUBLIC "-//W3C//DTD SVG 20010904//EN"
 "http://www.w3.org/TR/2001/REC-SVG-20010904/DTD/svg10.dtd">
<svg version="1.0" xmlns="http://www.w3.org/2000/svg"
 width="700.000000pt" height="700.000000pt" viewBox="0 0 700.000000 700.000000"
 preserveAspectRatio="xMidYMid meet">
<metadata>
Created by potrace 1.14, written by Peter Selinger 2001-2017
</metadata>
<g transform="translate(0.000000,700.000000) scale(0.100000,-0.100000)"
fill="#000000" stroke="none">
<path d="M3308 6885 c-2 -1 -46 -5 -98 -9 -107 -8 -117 -9 -285 -37 -444 -73
-907 -256 -1280 -505 -235 -157 -365 -263 -552 -451 -380 -384 -653 -831 -816
-1338 -71 -221 -98 -338 -132 -570 -26 -185 -32 -281 -30 -505 3 -258 9 -323
51 -568 85 -491 303 -1004 596 -1397 342 -459 758 -808 1247 -1046 321 -157
698 -275 971 -305 30 -3 57 -7 61 -9 3 -3 30 -6 60 -9 30 -3 90 -8 134 -13
101 -9 433 -9 545 1 91 7 118 11 220 27 36 5 79 11 95 14 157 21 474 111 668
189 240 97 563 279 759 427 171 129 393 333 508 465 98 113 137 162 210 263
152 210 278 430 380 668 38 89 111 300 154 443 39 133 93 453 103 610 14 202
6 581 -12 675 -2 11 -7 43 -10 70 -27 233 -116 559 -228 831 -190 462 -521
922 -897 1245 -41 35 -77 67 -80 70 -3 3 -50 39 -105 81 -602 453 -1300 686
-2052 686 -100 -1 -184 -2 -185 -3z"/>
<path d="M5646 598 c1 -13 3 -26 3 -29 1 -3 37 -5 81 -5 73 1 81 -1 85 -19 2
-11 4 -108 4 -215 -1 -107 -1 -203 0 -212 1 -13 9 -18 31 -18 l29 0 0 123 c0
67 0 172 0 233 l1 110 85 -2 85 -1 0 28 0 29 -203 0 -204 0 3 -22z"/>
<path d="M6125 363 l0 -258 30 -3 30 -3 0 215 c0 119 2 212 6 208 3 -4 46
-100 94 -214 97 -228 111 -245 142 -170 15 36 46 108 63 147 35 78 72 164 75
175 1 3 9 21 17 40 16 33 16 25 17 -182 l1 -218 30 0 30 0 1 100 c0 55 0 156
0 225 0 69 0 141 0 161 l-1 35 -46 -3 -46 -3 -70 -160 c-38 -88 -78 -178 -88
-200 l-18 -40 -22 50 c-43 97 -97 221 -126 288 l-28 67 -46 0 -46 0 1 -257z"/>
</g>
</svg>
